<?xml version="1.0" standalone="no"?>
<!DOCTYPE svg PUBLIC "-//W3C//DTD SVG 20010904//EN"
 "http://www.w3.org/TR/2001/REC-SVG-20010904/DTD/svg10.dtd">
<svg version="1.0" xmlns="http://www.w3.org/2000/svg"
 width="666.000000pt" height="666.000000pt" viewBox="0 0 666.000000 666.000000"
 preserveAspectRatio="xMidYMid meet">
<metadata>
Created by potrace 1.14, written by Peter Selinger 2001-2017
</metadata>
<g transform="translate(0.000000,666.000000) scale(0.100000,-0.100000)"
fill="#000000" stroke="none">
<path d="M3173 5313 c-29 -2 -53 -7 -53 -10 0 -13 31 -332 36 -370 5 -40 8
-43 35 -43 35 0 35 0 14 205 -8 77 -15 146 -15 153 0 7 15 12 40 12 37 0 40
-2 40 -27 0 -16 3 -45 6 -65 6 -37 6 -38 -25 -38 -42 0 -41 -18 13 -134 43
-92 46 -96 77 -96 37 0 37 1 -14 112 l-36 76 26 7 26 6 -7 94 c-3 52 -9 101
-12 110 -6 15 -26 16 -151 8z"/>
<path d="M3613 5308 c-5 -7 -18 -80 -27 -163 -9 -82 -19 -166 -22 -185 -2 -19
-1 -40 4 -47 8 -13 164 -36 186 -27 8 3 17 18 20 32 13 67 39 350 34 364 -6
16 -25 20 -134 33 -36 5 -53 3 -61 -7z m134 -62 c2 -1 -27 -255 -33 -284 -4
-20 -8 -22 -42 -16 -20 4 -39 8 -40 10 -4 3 27 273 33 292 3 9 16 11 42 6 21
-4 39 -7 40 -8z"/>
<path d="M2736 5217 c-38 -12 -71 -27 -73 -34 -4 -10 81 -293 109 -366 9 -24
15 -27 37 -22 14 4 28 8 30 10 1 2 -7 34 -19 70 -12 36 -19 69 -15 73 3 4 27
14 53 23 25 8 50 22 55 30 7 11 -1 49 -24 125 -40 127 -40 127 -153 91z m92
-117 c11 -36 17 -69 13 -73 -4 -4 -20 -9 -36 -10 -25 -2 -30 3 -46 48 -26 73
-24 92 9 103 15 5 30 7 34 3 3 -3 15 -35 26 -71z"/>
<path d="M4085 5203 c-37 -99 -115 -334 -115 -351 0 -16 16 -26 87 -51 71 -26
89 -30 99 -19 23 23 136 361 127 377 -10 16 -135 61 -169 61 -12 0 -25 -8 -29
-17z m125 -78 c0 -5 -21 -72 -46 -148 -36 -108 -49 -137 -61 -133 -8 4 -26 9
-39 12 -13 3 -24 9 -24 14 0 5 52 158 95 277 3 10 12 10 39 0 19 -7 35 -16 36
-22z"/>
<path d="M2320 5036 c-41 -24 -75 -47 -77 -52 -2 -6 3 -18 10 -28 13 -18 15
-18 41 -1 14 10 28 16 30 14 2 -2 43 -74 91 -161 l87 -156 28 16 29 17 -20 33
c-53 91 -149 271 -149 280 0 6 10 17 23 23 31 16 30 15 17 38 -15 28 -24 27
-110 -23z"/>
<path d="M4441 4863 l-104 -177 23 -18 c12 -10 25 -18 29 -18 3 0 24 32 46 71
22 40 45 73 51 76 6 2 26 -5 45 -16 l33 -20 15 21 c13 19 12 23 -6 37 -11 9
-29 21 -39 27 -17 10 -16 13 10 60 16 27 30 50 32 52 1 2 20 -8 43 -22 50 -32
55 -32 68 -3 10 22 6 26 -59 65 -38 23 -72 42 -76 41 -4 0 -54 -79 -111 -176z"/>
<path d="M1961 4790 c-33 -29 -61 -55 -61 -58 1 -4 11 -19 23 -33 69 -81 224
-265 233 -277 8 -12 23 -3 78 43 l68 58 -20 20 -20 20 -42 -33 -41 -33 -30 34
c-52 60 -53 65 -15 96 34 27 34 28 17 50 l-18 22 -36 -30 -35 -29 -36 40 c-20
22 -36 44 -36 49 0 5 17 23 37 40 31 25 36 34 27 48 -18 29 -29 25 -93 -27z"/>
<path d="M4983 4439 c-81 -68 -143 -127 -143 -137 0 -24 99 -142 119 -142 9 0
36 17 60 38 41 35 43 39 30 60 -18 28 -24 28 -61 -3 l-29 -25 -26 31 c-14 17
-22 34 -17 38 5 4 52 43 104 86 52 43 102 85 111 92 15 12 20 10 40 -18 l23
-32 -32 -27 -32 -26 23 -22 24 -22 39 31 c38 30 54 47 54 61 0 16 -113 138
-128 138 -9 0 -81 -55 -159 -121z"/>
<path d="M3290 4534 c-76 -7 -249 -45 -329 -71 -135 -43 -390 -174 -391 -199
0 -14 53 -64 69 -64 7 0 25 9 40 19 102 73 345 166 513 197 129 24 380 24 508
0 137 -25 292 -78 416 -142 l109 -55 45 17 c25 9 49 20 54 24 4 5 -30 30 -76
58 -245 144 -476 211 -758 217 -85 1 -175 1 -200 -1z"/>
<path d="M1625 4440 c-16 -18 -17 -22 -4 -34 28 -27 300 -246 308 -249 4 -1
30 24 56 57 38 46 46 62 38 75 -17 27 -37 23 -63 -14 -14 -19 -27 -35 -30 -35
-3 0 -55 41 -114 90 -107 89 -160 130 -168 130 -3 0 -13 -9 -23 -20z"/>
<path d="M4535 4220 c-324 -85 -652 -270 -915 -515 -73 -68 -83 -74 -330 -183
l-255 -112 -505 -506 c-278 -277 -513 -509 -523 -515 -15 -8 -24 -6 -41 10
-27 25 -91 28 -124 6 -24 -18 -41 -67 -34 -103 7 -35 924 -949 960 -957 89
-19 154 94 92 160 l-24 26 517 517 516 517 69 155 c162 363 162 363 218 420
270 278 481 686 559 1078 7 32 6 32 -32 32 -21 -1 -87 -14 -148 -30z m-1047
-1197 l-1078 -1078 -165 165 c-91 91 -165 169 -165 175 0 5 227 236 504 513
l503 502 84 39 c46 21 159 71 251 111 156 67 174 78 261 154 191 167 372 294
526 369 86 41 313 125 341 126 8 1 -470 -484 -1062 -1076z m1038 819 c-128
-256 -254 -436 -443 -633 -89 -92 -85 -85 -256 -471 l-52 -118 -510 -510 -511
-511 -32 34 -32 33 480 479 c331 331 488 494 505 526 13 26 61 129 105 229
104 233 121 267 166 315 41 44 123 132 194 210 93 101 280 326 356 428 44 58
80 104 82 102 2 -1 -22 -52 -52 -113z"/>
<path d="M5260 4089 c-85 -44 -163 -89 -173 -98 -18 -17 -17 -20 20 -91 22
-40 47 -78 56 -84 13 -9 48 5 172 69 85 44 164 88 175 98 20 18 20 19 -22 100
-24 45 -50 83 -58 84 -8 2 -85 -33 -170 -78z m175 -25 c9 -14 14 -31 12 -37
-3 -7 -64 -43 -135 -80 l-131 -68 -16 31 c-9 17 -15 36 -13 41 4 11 235 136
254 138 7 1 19 -11 29 -25z"/>
<path d="M2202 4129 c-111 -55 -161 -188 -112 -296 l19 -43 -59 -122 c-32 -68
-70 -159 -84 -203 -95 -302 -99 -620 -10 -932 9 -31 35 -29 68 6 l27 28 -15
59 c-46 183 -55 440 -22 614 29 153 94 336 158 446 l18 31 43 -14 c81 -29 187
3 245 72 97 118 51 300 -90 359 -54 23 -134 20 -186 -5z m158 -104 c83 -43 78
-170 -8 -211 -73 -34 -158 13 -169 93 -13 97 89 164 177 118z"/>
<path d="M1395 4084 c-9 -14 -15 -27 -13 -29 9 -9 356 -195 364 -195 5 0 26
31 47 70 36 66 37 69 18 79 -30 16 -34 14 -59 -30 l-23 -40 -72 39 c-40 21
-111 60 -158 86 l-86 46 -18 -26z"/>
<path d="M4714 3855 c-4 -11 -13 -35 -21 -54 -13 -34 -12 -38 46 -155 67 -137
100 -229 133 -378 30 -135 32 -415 5 -548 -27 -131 -73 -267 -125 -371 -42
-84 -50 -94 -72 -91 -95 10 -137 5 -186 -22 -88 -49 -132 -132 -120 -230 26
-224 329 -277 430 -75 34 69 35 138 2 203 l-24 48 38 71 c179 334 227 752 130
1132 -37 145 -140 373 -210 465 -18 24 -19 24 -26 5z m-32 -1734 c30 -26 33
-35 33 -84 0 -65 -26 -100 -85 -118 -96 -29 -182 80 -135 171 22 42 53 60 107
60 39 0 54 -6 80 -29z"/>
<path d="M1259 3773 c-11 -31 -6 -37 41 -51 19 -6 94 -29 167 -52 l131 -40
-10 -38 c-6 -20 -11 -38 -12 -39 -2 -2 -80 21 -174 51 -162 50 -173 53 -182
36 -21 -39 -12 -45 181 -103 151 -46 193 -56 205 -47 15 13 54 134 54 168 0
22 -9 26 -298 112 l-93 28 -10 -25z"/>
<path d="M5430 3671 c-91 -26 -172 -50 -181 -53 -15 -6 -15 -12 1 -71 24 -86
36 -105 66 -113 29 -7 293 58 330 82 32 19 36 53 16 130 -16 61 -21 69 -42 71
-14 0 -99 -20 -190 -46z m182 -57 c5 -19 3 -33 -5 -40 -6 -6 -67 -27 -135 -45
-134 -36 -154 -34 -160 14 -3 24 2 27 50 41 29 8 91 26 138 39 47 14 89 24 94
23 6 -1 13 -15 18 -32z"/>
<path d="M2745 3373 c-477 -572 -475 -565 -39 -131 l398 397 -34 36 c-19 19
-36 35 -39 35 -4 0 -132 -152 -286 -337z"/>
<path d="M1156 3302 c-3 -6 -9 -51 -13 -101 -5 -74 -3 -91 8 -91 8 0 88 -7
179 -15 91 -8 179 -15 196 -15 l31 0 7 92 c5 69 4 94 -6 103 -7 7 -48 15 -91
18 -69 5 -81 3 -98 -14 -20 -20 -20 -20 -38 3 -16 19 -30 23 -94 26 -44 3 -77
0 -81 -6z m152 -74 c13 -11 17 -54 5 -61 -5 -3 -32 -2 -60 0 l-53 6 0 39 0 39
48 -7 c26 -3 53 -11 60 -16z m200 -40 l3 -38 -55 0 c-69 0 -86 7 -86 34 0 36
20 47 80 44 l55 -3 3 -37z"/>
<path d="M5515 3235 c-99 -8 -183 -14 -187 -14 -10 -1 -10 -96 -2 -140 5 -24
12 -31 30 -31 22 0 24 4 24 54 l0 53 46 7 c84 11 84 11 84 -39 0 -43 1 -45 30
-45 29 0 30 2 30 44 l0 45 45 7 c66 9 75 3 75 -56 0 -46 2 -50 24 -50 14 0 27
4 30 9 3 4 3 45 -1 90 -5 74 -8 81 -27 80 -12 -1 -102 -7 -201 -14z"/>
<path d="M3600 2115 c-156 -156 -282 -286 -280 -288 4 -4 586 476 623 513 10
9 -31 60 -47 60 -6 0 -139 -128 -296 -285z"/>
<path d="M1819 1834 c-79 -98 -153 -189 -163 -203 -11 -13 -15 -22 -8 -20 12
4 366 295 381 313 8 9 -1 23 -28 50 l-38 37 -144 -177z"/>
<path d="M2042 1731 c-51 -55 -92 -102 -92 -106 0 -6 154 98 206 140 29 23 29
23 10 44 -11 12 -22 21 -26 21 -3 0 -48 -45 -98 -99z"/>
<path d="M4205 1744 c-212 -134 -499 -214 -759 -214 -102 0 -273 22 -356 44
l-55 15 -32 -31 c-57 -55 -53 -58 142 -100 137 -30 431 -32 580 -4 122 22 312
84 409 133 59 30 169 95 185 109 5 5 -60 74 -68 74 -4 0 -24 -12 -46 -26z"/>
<path d="M2023 1428 c-288 -330 -286 -328 -193 -248 219 186 500 432 506 441
6 10 -52 79 -67 79 -4 0 -115 -123 -246 -272z"/>
<path d="M2345 1439 c-44 -62 -84 -119 -89 -128 -10 -17 40 26 148 127 l68 64
-24 24 -24 24 -79 -111z"/>
</g>
</svg>
